<svg xmlns="http://www.w3.org/2000/svg" width="543.797" height="608.564" viewBox="0 0 543.797 608.564">
  <g id="Group_73" data-name="Group 73" transform="translate(-74.203 -198.436)">
    <g id="Group_55" data-name="Group 55">
      <line id="Line_56" data-name="Line 56" x2="19" y2="22" transform="translate(103.5 331.5)" fill="none" stroke="rgba(33,33,33,0.2)" stroke-width="1"/>
      <line id="Line_57" data-name="Line 57" x2="29" y2="19" transform="translate(93.5 342.5)" fill="none" stroke="rgba(33,33,33,0.2)" stroke-width="1"/>
      <line id="Line_58" data-name="Line 58" x2="4" y2="31" transform="translate(540.5 198.5)" fill="none" stroke="rgba(33,33,33,0.2)" stroke-width="1"/>
      <line id="Line_59" data-name="Line 59" x2="9" y2="31" transform="translate(523.5 206.5)" fill="none" stroke="rgba(33,33,33,0.2)" stroke-width="1"/>
      <line id="Line_60" data-name="Line 60" x2="21" y2="25" transform="translate(203.5 222.5)" fill="none" stroke="rgba(33,33,33,0.2)" stroke-width="1"/>
      <line id="Line_61" data-name="Line 61" x2="13" y2="3" transform="translate(190.5 269.5)" fill="none" stroke="rgba(33,33,33,0.2)" stroke-width="1"/>
      <line id="Line_62" data-name="Line 62" x1="12" y2="8" transform="translate(596.5 298.5)" fill="none" stroke="rgba(33,33,33,0.2)" stroke-width="1"/>
      <line id="Line_63" data-name="Line 63" x2="15" y2="25" transform="translate(518.5 402.5)" fill="none" stroke="rgba(33,33,33,0.2)" stroke-width="1"/>
      <line id="Line_64" data-name="Line 64" x2="20" y2="27" transform="translate(509.5 415.5)" fill="none" stroke="rgba(33,33,33,0.2)" stroke-width="1"/>
      <line id="Line_65" data-name="Line 65" x1="38" y2="25" transform="translate(463.5 665.5)" fill="none" stroke="rgba(33,33,33,0.2)" stroke-width="1"/>
      <line id="Line_66" data-name="Line 66" x1="41" y2="24" transform="translate(468.5 678.5)" fill="none" stroke="rgba(33,33,33,0.2)" stroke-width="1"/>
      <g id="Ellipse_47" data-name="Ellipse 47" transform="translate(133 343)" fill="#fafcfe" stroke="rgba(33,33,33,0.2)" stroke-width="1">
        <circle cx="14" cy="14" r="14" stroke="none"/>
        <circle cx="14" cy="14" r="13.5" fill="none"/>
      </g>
      <g id="Ellipse_48" data-name="Ellipse 48" transform="translate(576 605)" fill="#fafcfe" stroke="rgba(33,33,33,0.2)" stroke-width="1">
        <circle cx="21" cy="21" r="21" stroke="none"/>
        <circle cx="21" cy="21" r="20.5" fill="none"/>
      </g>
      <g id="Ellipse_49" data-name="Ellipse 49" transform="translate(375 729)" fill="#fafcfe" stroke="rgba(33,33,33,0.2)" stroke-width="1">
        <circle cx="39" cy="39" r="39" stroke="none"/>
        <circle cx="39" cy="39" r="38.5" fill="none"/>
      </g>
      <path id="Path_550" data-name="Path 550" d="M-22360-13290.431v-28.134l27.2,28.134" transform="translate(22454 13878)" fill="none" stroke="rgba(33,33,33,0.2)" stroke-width="1"/>
      <path id="Path_551" data-name="Path 551" d="M-22427.5-13241.98s12.646,9.377,23.586,0,17.975-17.192,28.133-11.722" transform="translate(22502 13921)" fill="none" stroke="rgba(33,33,33,0.2)" stroke-width="1"/>
      <path id="Path_552" data-name="Path 552" d="M-22427.5-13241.98s12.646,9.377,23.586,0,17.975-17.192,28.133-11.722" transform="translate(22503 13930)" fill="none" stroke="rgba(33,33,33,0.2)" stroke-width="1"/>
    </g>
    <g id="Sign_Up" data-name="Sign Up" transform="translate(132.709 236.957)">
      <path id="Path_553" data-name="Path 553" d="M481.632,774.6a1.217,1.217,0,0,1-.109.53c-.07.14-.166.219-.265.219H281.539c-.207,0-.374-.335-.374-.748s.167-.748.374-.748H481.258c.1,0,.195.078.265.219a1.218,1.218,0,0,1,.109.53Z" transform="translate(-173.089 -365.098)" fill="#e8eef2"/>
      <path id="Path_554" data-name="Path 554" d="M740.721,142.321a15.586,15.586,0,0,0-3.534-7.419,29.867,29.867,0,0,0-42.151-2.722l-.252.226a30.469,30.469,0,0,0-49.017,9.431,28.385,28.385,0,0,0,1.276,25.772,29.818,29.818,0,0,0,3.515,4.917c1.377,1.572,38.549,42.925,38.919,43.34a.469.469,0,0,0,.358.163c.013,0,.031-.006.05-.006a.168.168,0,0,0,.075-.019.481.481,0,0,0,.3-.214l.195-.321.233-.4,3.439-5.747c9.538-15.939,22.4-30.978,38.222-44.7a24.549,24.549,0,0,0,2.823-2.892,25.446,25.446,0,0,0,5.847-14.31,20.075,20.075,0,0,0-.3-5.105Z" transform="translate(-415.774 -123.771)" fill="#f96e46"/>
      <path id="Path_555" data-name="Path 555" d="M513,641.776l7-22.8a76.947,76.947,0,0,0-30.759-20.608c11.507,19.063.357,43.93,5,65.707a46.286,46.286,0,0,0,24.791,31.543l10.623,13.163a77.561,77.561,0,0,0,5.7-64.691,74.915,74.915,0,0,0-8.674-16.673C520.368,634.839,513,641.776,513,641.776Z" transform="translate(-358.588 -299.951)" fill="#e8eef2"/>
      <path id="Path_556" data-name="Path 556" d="M441.816,655.056l-3.9-23.528a76.95,76.95,0,0,0-36.721-4.727c18.8,11.93,19.911,39.161,33.782,56.579a46.285,46.285,0,0,0,36.257,17.175L486.61,707.6a77.561,77.561,0,0,0-23.748-60.443,74.92,74.92,0,0,0-15.2-11.054C445.321,645.559,441.816,655.056,441.816,655.056Z" transform="translate(-325.901 -310.318)" fill="#e8eef2"/>
      <path id="Path_557" data-name="Path 557" d="M305.729,298.3l-1.933,4.5,3.159,15.968,32.227-4.481-.257-19.47-.647-4.265Z" transform="translate(-112.961 -107.85)" fill="#ffdcd2"/>
      <path id="Path_558" data-name="Path 558" d="M280.389,615.812h7.11l3.383-27.423H280.389Z" transform="translate(-104.271 -218.425)" fill="#ffdcd2"/>
      <path id="Path_559" data-name="Path 559" d="M579.176,759.278l-10.8-7.458v-4.87l-1.255.078-7.786.464-2.317.135-1.433,17.191h5.1l.906-4.813,2.332,4.813H577.45a3.039,3.039,0,0,0,1.726-5.54Z" transform="translate(-383.221 -355.111)" fill="#212121"/>
      <path id="Path_560" data-name="Path 560" d="M342.686,607.694h7.11l4.182-40.374-13.36-.8Z" transform="translate(-126.631 -210.306)" fill="#ffdcd2"/>
      <path id="Path_561" data-name="Path 561" d="M642.694,759.278l-10.8-7.458v-4.87l-1.369.078-7.922.478-2.068.121-1.433,17.191h5.1l.906-4.813,2.332,4.813h13.526a3.039,3.039,0,0,0,1.726-5.54Z" transform="translate(-406.802 -355.111)" fill="#212121"/>
      <path id="Path_562" data-name="Path 562" d="M555.614,615.892h.028l1.367-44.59a11.659,11.659,0,0,1,.153-11.018l.2-.354-.508-2.353a14.987,14.987,0,0,1,.856-9.02l1.276-41.594c-4.557-29.535,17.161-48.8,17.161-48.8l-2-15.48,35.128.8-.6,14.682,6.985,24c3.676,35.813,3.894,70.9.134,105.146a.654.654,0,0,0,.043.289,8.744,8.744,0,0,1-.706,7.056,2.666,2.666,0,0,0-.318.875c-.775,6-.875-1.591-1.9,4.36l.2.1a1.688,1.688,0,0,1,.689,2.226c-.339.981-1.2,1.575-1.915,1.327l-18.779.2a1.688,1.688,0,0,1-.689-2.226c.339-.981,1.2-1.575,1.916-1.327l1.168.591-1.955-6.395-.685-.64a2.978,2.978,0,0,1,.379-4.654h0l.568-18.565.276-7.859-.57-8.916-2.634-40.1-9.969,49.318-10.183,53.421a1.866,1.866,0,0,1,.584,1.731,1.935,1.935,0,0,1-1.928,1.531H555.564a1.883,1.883,0,0,1-1.813-2.384A1.906,1.906,0,0,1,555.614,615.892Z" transform="translate(-382.514 -242.153)" fill="#212121"/>
      <path id="Path_563" data-name="Path 563" d="M576.3,295.392a17.392,17.392,0,1,0,29.914-12.063l-.083-.083c-.139-.146-.278-.292-.424-.431l0,0a.007.007,0,0,1,0,0,3.645,3.645,0,0,1-.55-.494c-2.348-3.281-5.01-6.032-11.458-4.313C584.414,280.474,576.3,285.785,576.3,295.392Z" transform="translate(-390.912 -180.817)" fill="#212121"/>
      <path id="Path_564" data-name="Path 564" d="M693.465,290.485a6.371,6.371,0,0,1-7.217,6.583L641.394,333.88l-6.851-12.042,46.244-32.4a6.405,6.405,0,0,1,12.678,1.045Z" transform="translate(-412.533 -183.355)" fill="#ffdcd2"/>
      <path id="Path_565" data-name="Path 565" d="M612.081,357.539s1.461,3.032,7.144-1.275c4.55-3.448,26.27-18.323,31.094-24.611a5,5,0,0,0,5.966-1.431L644.419,318.8c-3.724.251-3.762,2.743-3.443,4.174l-9.537,3.79L606.6,341.031l4.386,14.335Z" transform="translate(-402.159 -196.159)" fill="#e8eef2"/>
      <circle id="Ellipse_50" data-name="Ellipse 50" cx="14.584" cy="14.584" r="14.584" transform="translate(192.486 104.015)" fill="#ffdcd2"/>
      <path id="Path_566" data-name="Path 566" d="M615.335,395.913l.15-8.136c.592-.813,5.554-7.908,4.442-15a12.43,12.43,0,0,0-5.369-8.321L612.6,359.9l-2.9-6.745L601.2,348.1l-1.176-2.4-.97-1.989-11.715-1.169-2.888,3.886-.057.007a18.954,18.954,0,0,0-7.309,3.423,19.287,19.287,0,0,0-7.63,15.387l.071,9.455.014,1.355.007,1.312,7.309,19.673.278.763L580,405.511l-.492.813a4.316,4.316,0,0,0,.948,5.54l.342,4.82.62-.171,3.53-.984,26.7-7.451a4.848,4.848,0,0,0,2.531-1.7,1.031,1.031,0,0,0,.064-.093,2.692,2.692,0,0,0,.278-.421,6.483,6.483,0,0,0,.677-2.374,5.855,5.855,0,0,0,.285-7.373Z" transform="translate(-388.37 -204.975)" fill="#e8eef2"/>
      <path id="Path_567" data-name="Path 567" d="M586.243,305.459c.132-.021.264-.049.4-.07,2.275-.4,4.55-.8,6.818-1.21l.209-5.141,2.748,4.605c6.268,2.08,12.133.9,17.65-1.69a49.838,49.838,0,0,0,5.287-2.915c.56-8.695-2.955-14.261-9.5-13.677-.239.021-.41-.223-.619-.327l0,0a.007.007,0,0,1,0,0c-.355-.167-.716-.327-1.078-.473a16.065,16.065,0,0,0-16.864,3.27A19.193,19.193,0,0,0,586.243,305.459Z" transform="translate(-394.436 -183.037)" fill="#212121"/>
      <path id="Path_568" data-name="Path 568" d="M568.953,271.7a2.7,2.7,0,0,1-2.232,1.925c-1.961,2.424-4.207,4.991-7.28,5.476a3.5,3.5,0,0,1-2.56-.442,1.425,1.425,0,0,1-.257-.207,1.715,1.715,0,0,1,.078-2.6c-3.865,1.533-6.125,5.7-6.7,9.819s.221,8.271.742,12.393.749,8.45-.87,12.279a15.637,15.637,0,0,1-11.095,8.792c-.428.093-.856.171-1.291.221a13.168,13.168,0,0,0-2.125-5.462,11.78,11.78,0,0,1-.506,5.647,22.5,22.5,0,0,1-10.318-2.667,33.7,33.7,0,0,1-10.917-9.7c5.1,3.615,12.143,4.97,17.691,2.111,4.963-2.567,7.893-7.958,9.177-13.391s-4.111-12.106-3.526-17.661,7.291-10.269,10.956-14.483c2.339-2.688,5.79-4.678,9.348-4.342a8.4,8.4,0,0,1,7.359,10.375,2.583,2.583,0,0,1,4.278.513A2.112,2.112,0,0,1,568.953,271.7Z" transform="translate(-367.643 -174.096)" fill="#212121"/>
      <path id="Path_569" data-name="Path 569" d="M587.138,305.972a29.666,29.666,0,0,1,22.839-19.848c.021-.007.09-.035.181-.076.056-.035.125-.07.195-.1-.209-.118-.41-.223-.619-.327l0,0a.007.007,0,0,1,0,0c-.181-.167-.362-.334-.55-.494l-.529.021S590.067,282.194,587.138,305.972Z" transform="translate(-394.934 -183.619)" fill="#ffcb47"/>
      <path id="Path_570" data-name="Path 570" d="M652.253,439.641a2.46,2.46,0,0,0-2.039-1.544,5.856,5.856,0,0,0-2.646.383,20.345,20.345,0,0,0-8.6,5.593l.04,1.632a7.814,7.814,0,0,0,.128,9.8,4.818,4.818,0,0,0,2.5,1.62,2.814,2.814,0,0,0,2.757-.831c.986-1.2.51-3.009-.215-4.383a15.97,15.97,0,0,0-5.38-5.9,25.9,25.9,0,0,0,10.879-2.7,6.135,6.135,0,0,0,1.991-1.4,2.466,2.466,0,0,0,.587-2.27Z" transform="translate(-413.571 -240.441)" fill="#212121"/>
      <path id="Path_571" data-name="Path 571" d="M763.08,586.468l-7.057.279a22.789,22.789,0,0,0-2.743,10.616c4.2-5.085,12.241-4.407,17.871-7.841a13.707,13.707,0,0,0,6.383-10.021l2.637-4.259a22.969,22.969,0,0,0-18.636,4.75,22.188,22.188,0,0,0-3.809,4.059C760.419,585.088,763.08,586.468,763.08,586.468Z" transform="translate(-456.615 -291.223)" fill="#e8eef2"/>
      <path id="Path_572" data-name="Path 572" d="M707.08,708.468l-7.057.279a22.789,22.789,0,0,0-2.743,10.616c4.2-5.084,12.241-4.407,17.871-7.841a13.708,13.708,0,0,0,6.383-10.021l2.637-4.259a22.969,22.969,0,0,0-18.636,4.75,22.189,22.189,0,0,0-3.809,4.059C704.419,707.088,707.08,708.468,707.08,708.468Z" transform="translate(-435.825 -336.516)" fill="#e8eef2"/>
      <path id="Path_573" data-name="Path 573" d="M439.92,538.869l-5.982-3.755a22.787,22.787,0,0,0-8.259,7.212c6.337-1.825,12.591,3.276,19.176,3.622a13.707,13.707,0,0,0,10.927-4.664l4.581-2.026a22.969,22.969,0,0,0-18.062-6.6,22.191,22.191,0,0,0-5.435,1.2C438.5,536.227,439.92,538.869,439.92,538.869Z" transform="translate(-334.992 -275.525)" fill="#e8eef2"/>
      <path id="Path_574" data-name="Path 574" d="M718.889,276.549c-.141-.945.884-1.619,1.268-2.494a3.986,3.986,0,0,0,0-2.4,5.639,5.639,0,0,0-1.245-2.951,5.055,5.055,0,0,0-2.773-1.162,24.3,24.3,0,0,0-7.509-.133l1.892.115a9.968,9.968,0,0,0-3.53.41,3.567,3.567,0,0,0-2.368,2.467,2.214,2.214,0,0,0,1.752,2.636,2.289,2.289,0,1,0-.939,4.482c-.273.738-1.086,1.092-1.781,1.46s-1.428,1-1.31,1.778c.155,1.029,1.531,1.241,2.57,1.2l11.319-.494a6.054,6.054,0,0,0,2.823-.586,2.077,2.077,0,0,0,1.037-2.453C719.8,277.73,719,277.291,718.889,276.549Z" transform="translate(-437.7 -176.996)" fill="#212121"/>
      <path id="Path_575" data-name="Path 575" d="M512.218,442.022c-1.556,6.834-2.295,14.582,1.854,20.7a14.21,14.21,0,0,0,7.355,5.572,20.869,20.869,0,0,0,9.372.576c7.077-.98,13.366-4.667,20.326-6.1,3.071-.632,6.331-.84,9.288.375,2.215.911,4.549,2.742,4.559,5.354.011,2.682-2.319,4.462-4.635,5.287-3.091,1.1-6.3.674-9.51.536-3.453-.149-6.975.163-9.844,2.278a17.12,17.12,0,0,0-5.471,7.418c-1.442,3.5-2.027,7.262-2.949,10.914a48.464,48.464,0,0,1-3.478,9.51,49.267,49.267,0,0,1-12.037,15.6c-2.477,2.132-5.486,4.3-8.869,4.5-2.609.151-5.781-.946-6.786-3.588a5.152,5.152,0,0,1,2.412-6.117c2.236-1.128,4.671.481,5.393,2.69a3.444,3.444,0,0,1-.359,3.105c-.678,1.011.955,1.956,1.629.952,1.564-2.332.746-5.467-1.169-7.335a5.493,5.493,0,0,0-7.23-.539,7.143,7.143,0,0,0-2.611,7.381c.8,2.9,3.657,4.749,6.5,5.206,3.517.565,6.9-.818,9.741-2.815a43.665,43.665,0,0,0,7.714-7.126,51.2,51.2,0,0,0,10.215-18.264c2.076-6.653,2.227-15.442,8.4-19.935,3.174-2.312,7.064-2.056,10.786-1.843,3.286.187,6.491.153,9.5-1.334a7.471,7.471,0,0,0,4.538-6.383c.042-2.916-2.028-5.26-4.467-6.588-6.443-3.509-14.181-.679-20.511,1.665-6.366,2.358-13.634,5.125-20.4,2.644a12.653,12.653,0,0,1-6.99-6.679A21.213,21.213,0,0,1,513,448.453a48.675,48.675,0,0,1,1.037-5.93c.269-1.182-1.549-1.686-1.819-.5Z" transform="translate(-362.306 -241.656)" fill="#373737"/>
      <path id="Path_576" data-name="Path 576" d="M565.056,462.737a6.371,6.371,0,0,1,1.964-9.569l-9.588-28.385,7.829-30.08,12.624,5.707-7.79,22.689,5.828,33.025a6.405,6.405,0,0,1-10.867,6.613Z" transform="translate(-383.905 -224.339)" fill="#ffdcd2"/>
      <path id="Path_577" data-name="Path 577" d="M574.889,355.19s-2.965-1.592-5.027,5.234c-1.651,5.465-12.886,35.135-13.088,43.058a5,5,0,0,0-3.983,4.667l16.317,2.258c2.863-2.394,1.428-4.431.328-5.4l5.558-9.414,11.616-25.414L577.052,356.3Z" transform="translate(-382.182 -209.61)" fill="#e8eef2"/>
      <path id="Path_578" data-name="Path 578" d="M511.684,397.984a63.4,63.4,0,0,1-8.337,17.5q-1.358,1.981-2.854,3.861a20.428,20.428,0,0,0-2.8-3.911c-3.8-4.181-8.9-6.916-13.851-9.658s-9.972-5.684-13.468-10.129a17.855,17.855,0,0,1-3.295-6.784,11.856,11.856,0,0,1,1.465-9.645c2.842-4.068,8.507-5.5,13.323-4.326s8.859,4.527,11.99,8.375c-1.025-4.728,3.961-9.293,8.784-8.878s8.689,4.634,9.972,9.3S513.067,393.344,511.684,397.984Z" transform="translate(-350.211 -216.79)" fill="#f96e46"/>
      <path id="Path_579" data-name="Path 579" d="M677.178,136.8a19.112,19.112,0,0,0-12.706,8.088,18.476,18.476,0,0,0-2.46,15.2,18.846,18.846,0,0,0,4.4,7.955c.829.891,2.16-.446,1.334-1.334a17.293,17.293,0,0,1-4.414-13.487,16.589,16.589,0,0,1,7.06-11.689,17.163,17.163,0,0,1,7.292-2.917c1.2-.18.688-2-.5-1.819Z" transform="translate(-422.483 -128.587)" fill="#212121"/>
      <g id="Group_53" data-name="Group 53" transform="translate(270.617 37.922)" opacity="0.2">
        <path id="Path_580" data-name="Path 580" d="M760.629,184.1A24.55,24.55,0,0,1,757.806,187c-15.826,13.719-28.683,28.759-38.222,44.7l-3.439,5.747-.233.4a9.46,9.46,0,0,1-2.094-2.182c-2.2-3.2-2.213-7.407-1.672-11.255a46.926,46.926,0,0,1,48.483-40.3Z" transform="translate(-711.851 -184.059)" fill="#212121"/>
      </g>
      <g id="Group_54" data-name="Group 54" transform="translate(116.869 172.078)" opacity="0.2">
        <path id="Path_581" data-name="Path 581" d="M503.587,424.05q-1.358,1.981-2.854,3.861a20.434,20.434,0,0,0-2.8-3.911c-3.8-4.181-8.9-6.916-13.851-9.657s-9.972-5.684-13.468-10.129a17.856,17.856,0,0,1-3.295-6.784,47.638,47.638,0,0,1,28.86,15.31A46.344,46.344,0,0,1,503.587,424.05Z" transform="translate(-467.321 -397.429)" fill="#212121"/>
      </g>
      <circle id="Ellipse_51" data-name="Ellipse 51" cx="2.515" cy="2.515" r="2.515" transform="translate(271.183 86.53)" fill="#212121"/>
    </g>
  </g>
</svg>
