<svg xmlns="http://www.w3.org/2000/svg" width="200" height="190.017" viewBox="0 0 200 190.017">
  <g id="footer" transform="translate(-91 14)">
    <g id="Group_49" data-name="Group 49" transform="translate(232.832 35.59)">
      <path id="Path_509" data-name="Path 509" d="M894.813,537.912a3.152,3.152,0,0,1,.664-4.784l-2.495-10.911,5.442,2.038,1.535,10.049a3.164,3.164,0,0,1-5.146,3.608Z" transform="translate(-843.938 -461.379)" fill="#ffcdbf"/>
      <path id="Path_510" data-name="Path 510" d="M888.087,480.636l-4.784-9.259.647-23.315.307.648c.358.755,8.752,18.545,8.153,24.5l.959,5.442Z" transform="translate(-838.333 -412.763)" fill="#212121"/>
      <path id="Path_511" data-name="Path 511" d="M721.306,566h3.836l1.825-14.812H721.3Z" transform="translate(-674.671 -429.704)" fill="#ffcdbf"/>
      <path id="Path_512" data-name="Path 512" d="M885.3,737.69h7.555a4.817,4.817,0,0,1,4.814,4.819v.157H885.3Z" transform="translate(-839.642 -602.644)" fill="#212121"/>
      <path id="Path_513" data-name="Path 513" d="M611.134,558.561l3.7,1.029,5.722-13.781L615.1,544.29Z" transform="translate(-602.4 -425.179)" fill="#ffcdbf"/>
      <path id="Path_514" data-name="Path 514" d="M773.664,728.588l7.278,2.026h0a4.82,4.82,0,0,1,3.348,5.934l-.042.151-11.916-3.317Z" transform="translate(-765.537 -596.676)" fill="#212121"/>
      <path id="Path_515" data-name="Path 515" d="M805.307,572.13l-7.741-55.492-16.72,55.178L767.7,567.322l18.843-73.885.124-.009,19.739-1.375,14.261,75.592Z" transform="translate(-762.498 -441.604)" fill="#212121"/>
      <path id="Path_516" data-name="Path 516" d="M834.479,415.244a29.34,29.34,0,0,0-16.9-2.193s-5.162,12.469,0,17.433l1.408,12.481s13.141,7.831,17.521-1.253l-.626-10.337s3.129-4.957.626-8.587A12,12,0,0,1,834.479,415.244Z" transform="translate(-793.717 -389.56)" fill="#f96e46"/>
      <path id="Path_517" data-name="Path 517" d="M869.315,475.488l1.263-26.239L867,418.034l.164-.025c4.689-.708,6.193,7.38,6.255,7.724l8.162,46.2Z" transform="translate(-827.64 -393.032)" fill="#212121"/>
      <path id="Path_518" data-name="Path 518" d="M799.951,471.377l-14.429-1.6,0-.158c.051-2.139,1.293-52.419,4.773-55.98,3.5-3.582,10.106-2.032,10.385-1.964l.139.034-1.187,21.276Z" transform="translate(-774.19 -388.648)" fill="#212121"/>
      <path id="Path_519" data-name="Path 519" d="M806.457,481.67a3.146,3.146,0,0,1-4.1-2.552l-10.972-2.152,4.071-4.15,9.795,2.68a3.167,3.167,0,0,1,1.2,6.173Z" transform="translate(-778.038 -428.992)" fill="#ffcdbf"/>
      <path id="Path_520" data-name="Path 520" d="M775.143,442.156l-3.575-.769c-5.278,1.589-14.49-4.005-18.214-6.49-.7-.467-.928-1.394-.676-2.753a8.029,8.029,0,0,1,2.947-4.792l13.113-10.409,3.31-.554.983,5.577-8.355,8.984,12.3,6.7Z" transform="translate(-752.58 -391.998)" fill="#212121"/>
      <path id="Path_521" data-name="Path 521" d="M814.061,364.338v-7.232a11.524,11.524,0,1,1,23.048,0v7.232a1.551,1.551,0,0,1-1.548,1.55H815.609A1.551,1.551,0,0,1,814.061,364.338Z" transform="translate(-792.91 -345.568)" fill="#212121"/>
      <ellipse id="Ellipse_34" data-name="Ellipse 34" cx="8.449" cy="8.459" rx="8.449" ry="8.459" transform="translate(23.762 3.33)" fill="#ffcdbf"/>
      <path id="Path_522" data-name="Path 522" d="M820.578,360.437a.862.862,0,0,1-.2-.686l1-6.977a.862.862,0,0,1,.487-.661,17.425,17.425,0,0,1,15.4-.009.868.868,0,0,1,.492.7l.668,6.987a.86.86,0,0,1-.856.943h-1.694a.863.863,0,0,1-.779-.5l-.731-1.569a.516.516,0,0,0-.98.154l-.144,1.157a.862.862,0,0,1-.853.754H821.229A.86.86,0,0,1,820.578,360.437Z" transform="translate(-797.048 -348.68)" fill="#212121"/>
    </g>
    <g id="Group_48" data-name="Group 48" transform="translate(91 -14)">
      <rect id="Rectangle_87" data-name="Rectangle 87" width="129.263" height="80.586" transform="translate(0 9.481)" fill="#e8eef2"/>
      <rect id="Rectangle_88" data-name="Rectangle 88" width="23.675" height="15.406" transform="translate(8.668 25.005)" fill="#fff"/>
      <rect id="Rectangle_89" data-name="Rectangle 89" width="23.675" height="15.406" transform="translate(38.086 25.005)" fill="#fff"/>
      <rect id="Rectangle_90" data-name="Rectangle 90" width="23.675" height="15.406" transform="translate(67.503 25.005)" fill="#fff"/>
      <rect id="Rectangle_91" data-name="Rectangle 91" width="23.675" height="15.406" transform="translate(96.92 25.005)" fill="#fff"/>
      <rect id="Rectangle_92" data-name="Rectangle 92" width="23.675" height="15.406" transform="translate(8.668 46.811)" fill="#fff"/>
      <rect id="Rectangle_93" data-name="Rectangle 93" width="23.675" height="15.406" transform="translate(38.086 46.811)" fill="#fff"/>
      <rect id="Rectangle_94" data-name="Rectangle 94" width="23.675" height="15.406" transform="translate(67.503 46.811)" fill="#fff"/>
      <rect id="Rectangle_95" data-name="Rectangle 95" width="23.675" height="15.406" transform="translate(96.92 46.811)" fill="#fff"/>
      <rect id="Rectangle_96" data-name="Rectangle 96" width="23.675" height="15.406" transform="translate(8.668 68.616)" fill="#fff"/>
      <rect id="Rectangle_97" data-name="Rectangle 97" width="23.675" height="15.406" transform="translate(38.086 68.616)" fill="#fff"/>
      <rect id="Rectangle_98" data-name="Rectangle 98" width="23.675" height="15.406" transform="translate(67.503 68.616)" fill="#fff"/>
      <rect id="Rectangle_99" data-name="Rectangle 99" width="23.675" height="15.406" transform="translate(96.92 68.616)" fill="#fff"/>
      <ellipse id="Ellipse_35" data-name="Ellipse 35" cx="3.551" cy="3.555" rx="3.551" ry="3.555" transform="translate(30.303 11.851)" fill="#fff"/>
      <ellipse id="Ellipse_36" data-name="Ellipse 36" cx="3.551" cy="3.555" rx="3.551" ry="3.555" transform="translate(89.017 11.851)" fill="#fff"/>
      <rect id="Rectangle_100" data-name="Rectangle 100" width="2.841" height="16.354" transform="translate(32.434)" fill="#e8eef2"/>
      <rect id="Rectangle_101" data-name="Rectangle 101" width="2.841" height="16.354" transform="translate(91.147)" fill="#e8eef2"/>
      <path id="Path_523" data-name="Path 523" d="M618.41,268.964a5.34,5.34,0,1,1-.827-2.863A5.343,5.343,0,0,1,618.41,268.964Z" transform="translate(-504.299 -236.255)" fill="#f96e46"/>
      <path id="Path_530" data-name="Path 530" d="M618.41,268.964a5.34,5.34,0,1,1-.827-2.863A5.343,5.343,0,0,1,618.41,268.964Z" transform="translate(-504.299 -214.382)" fill="#f96e46"/>
      <path id="Path_537" data-name="Path 537" d="M618.41,268.964a5.34,5.34,0,1,1-.827-2.863A5.343,5.343,0,0,1,618.41,268.964Z" transform="translate(-504.299 -192.509)" fill="#f96e46"/>
      <path id="Path_532" data-name="Path 532" d="M618.41,268.964a5.34,5.34,0,1,1-.827-2.863A5.343,5.343,0,0,1,618.41,268.964Z" transform="translate(-533.769 -214.382)" fill="#f96e46"/>
      <path id="Path_534" data-name="Path 534" d="M618.41,268.964a5.34,5.34,0,1,1-.827-2.863A5.343,5.343,0,0,1,618.41,268.964Z" transform="translate(-533.769 -192.509)" fill="#f96e46"/>
      <path id="Path_524" data-name="Path 524" d="M625.427,271.6l-5.27,5.275c-.331-.513-2.176-2.9-2.176-2.9a7.477,7.477,0,0,1,.755-.667l1.53,2.043,4.544-4.549A5.345,5.345,0,0,1,625.427,271.6Z" transform="translate(-512.143 -241.758)" fill="#fff"/>
      <path id="Path_531" data-name="Path 531" d="M625.427,271.6l-5.27,5.275c-.331-.513-2.176-2.9-2.176-2.9a7.477,7.477,0,0,1,.755-.667l1.53,2.043,4.544-4.549A5.345,5.345,0,0,1,625.427,271.6Z" transform="translate(-512.143 -219.885)" fill="#fff"/>
      <path id="Path_536" data-name="Path 536" d="M625.427,271.6l-5.27,5.275c-.331-.513-2.176-2.9-2.176-2.9a7.477,7.477,0,0,1,.755-.667l1.53,2.043,4.544-4.549A5.345,5.345,0,0,1,625.427,271.6Z" transform="translate(-512.143 -198.011)" fill="#fff"/>
      <path id="Path_533" data-name="Path 533" d="M625.427,271.6l-5.27,5.275c-.331-.513-2.176-2.9-2.176-2.9a7.477,7.477,0,0,1,.755-.667l1.53,2.043,4.544-4.549A5.345,5.345,0,0,1,625.427,271.6Z" transform="translate(-541.613 -219.885)" fill="#fff"/>
      <path id="Path_535" data-name="Path 535" d="M625.427,271.6l-5.27,5.275c-.331-.513-2.176-2.9-2.176-2.9a7.477,7.477,0,0,1,.755-.667l1.53,2.043,4.544-4.549A5.345,5.345,0,0,1,625.427,271.6Z" transform="translate(-541.613 -198.011)" fill="#fff"/>
      <path id="Path_525" data-name="Path 525" d="M367.62,361.805a5.34,5.34,0,1,1-.827-2.863A5.343,5.343,0,0,1,367.62,361.805Z" transform="translate(-312.343 -307.292)" fill="#f96e46"/>
      <path id="Path_539" data-name="Path 539" d="M367.62,361.805a5.34,5.34,0,1,1-.827-2.863A5.343,5.343,0,0,1,367.62,361.805Z" transform="translate(-312.343 -285.418)" fill="#f96e46"/>
      <path id="Path_526" data-name="Path 526" d="M374.636,364.446l-5.27,5.275c-.331-.513-2.177-2.9-2.177-2.9a7.465,7.465,0,0,1,.755-.668l1.53,2.043,4.544-4.549A5.339,5.339,0,0,1,374.636,364.446Z" transform="translate(-320.187 -312.795)" fill="#fff"/>
      <path id="Path_538" data-name="Path 538" d="M374.636,364.446l-5.27,5.275c-.331-.513-2.177-2.9-2.177-2.9a7.465,7.465,0,0,1,.755-.668l1.53,2.043,4.544-4.549A5.339,5.339,0,0,1,374.636,364.446Z" transform="translate(-320.187 -290.922)" fill="#fff"/>
      <path id="Path_527" data-name="Path 527" d="M242.223,361.805a5.34,5.34,0,1,1-.827-2.863,5.343,5.343,0,0,1,.827,2.863Z" transform="translate(-216.365 -307.291)" fill="#f96e46"/>
      <path id="Path_541" data-name="Path 541" d="M242.223,361.805a5.34,5.34,0,1,1-.827-2.863,5.343,5.343,0,0,1,.827,2.863Z" transform="translate(-216.365 -285.418)" fill="#f96e46"/>
      <path id="Path_528" data-name="Path 528" d="M249.24,364.446l-5.27,5.275c-.331-.513-2.177-2.9-2.177-2.9a7.465,7.465,0,0,1,.755-.668l1.53,2.043,4.544-4.549a5.338,5.338,0,0,1,.617.8Z" transform="translate(-224.208 -312.795)" fill="#fff"/>
      <path id="Path_540" data-name="Path 540" d="M249.24,364.446l-5.27,5.275c-.331-.513-2.177-2.9-2.177-2.9a7.465,7.465,0,0,1,.755-.668l1.53,2.043,4.544-4.549a5.338,5.338,0,0,1,.617.8Z" transform="translate(-224.208 -290.922)" fill="#fff"/>
    </g>
    <path id="Path_529" data-name="Path 529" d="M717.8,751.468H650.347c-.1,0-.177-.134-.177-.3s.079-.3.177-.3H717.8c.1,0,.177.134.177.3S717.9,751.468,717.8,751.468Z" transform="translate(-427.268 -575.451)" fill="#212121"/>
  </g>
</svg>
