<svg id="Intro" xmlns="http://www.w3.org/2000/svg" xmlns:xlink="http://www.w3.org/1999/xlink" width="50" height="50" viewBox="0 0 50 50">
  <defs>
    <clipPath id="clip-path">
      <rect id="Rectangle_386" data-name="Rectangle 386" width="50" height="50"/>
    </clipPath>
  </defs>
  <g id="Group_256" data-name="Group 256">
    <g id="Group_31080" clip-path="url(#clip-path)">
      <path id="Path_10638" d="M34.4,0a15.55,15.55,0,0,1,.1,31.1A16.363,16.363,0,0,1,27,29.2a1.76,1.76,0,0,0-2.5.3.349.349,0,0,0-.1.2c-6.3,6.4-12.6,12.7-19,19.1A.758.758,0,0,0,5,49a2.992,2.992,0,0,1-4.2.2h0c-1.1-1.1-1-2.8.3-4.1,3.2-3.2,6.4-6.5,9.6-9.7s6.4-6.5,9.6-9.6a1.962,1.962,0,0,0,.5-2.8.1.1,0,0,0-.1-.1,15.487,15.487,0,0,1,6.2-21A15.209,15.209,0,0,1,34.4,0m4.3,14.9c-.7.6-2.9-1.3-3.7-1.4-1.7-.2-2.9,1.8-2.7,3.4a3.622,3.622,0,0,0,2.9,2.9,4.615,4.615,0,0,0,4-1.2,5.517,5.517,0,0,0,1.5-5.3,6,6,0,0,0-3.8-4.1,6.688,6.688,0,0,0-5.7.2c-4.8,2.3-6.2,8.5-3.4,12.9A10.5,10.5,0,0,0,39.3,27,12.419,12.419,0,0,0,48,16.9a13.672,13.672,0,0,0-27.2-2.8A13.777,13.777,0,0,0,31.4,28.9c.7.1,1.4.2,2,.3a14.746,14.746,0,0,1-7.1-5.7c-4.4-6.8-.5-15.8,7.4-16.6a7.71,7.71,0,0,1,7.7,3.7,7.076,7.076,0,0,1,.3,8.1,6.4,6.4,0,0,1-6.5,3.2,5.233,5.233,0,0,1-4.5-3.8A4.9,4.9,0,0,1,33.8,12c.1,0,.1,0,.2-.1a4.19,4.19,0,0,1,3.1.6c.5.1,2.4,1.7,1.6,2.4M23,25.9a3.03,3.03,0,0,0-.7.5C15.8,33,9.3,39.5,2.8,46a1.874,1.874,0,0,0-.6.7c-.1.3-.2.9,0,1a1.672,1.672,0,0,0,1.2.1,5.5,5.5,0,0,0,.9-.7c4.2-4.3,8.5-8.5,12.7-12.8,2.4-2.3,4.8-4.6,7.3-7L23,25.9" fill="#333332"/>
    </g>
  </g>
</svg>
