<svg xmlns="http://www.w3.org/2000/svg" xmlns:xlink="http://www.w3.org/1999/xlink" width="45.1" height="50" viewBox="0 0 45.1 50">
  <defs>
    <clipPath id="clip-path">
      <rect id="Rectangle_388" data-name="Rectangle 388" width="45.1" height="50" transform="translate(2.4)"/>
    </clipPath>
  </defs>
  <g id="Prime" transform="translate(-2.4)">
    <g id="Group_257" data-name="Group 257">
      <g id="Group_31078" clip-path="url(#clip-path)">
        <path id="Path_10636" d="M46,0H36.3a1.7,1.7,0,0,0-1.6.9C33.5,3,32.3,5.1,31.2,7.2a.95.95,0,0,1-1,.6H11.5a1.038,1.038,0,0,0-1.1.7,1.971,1.971,0,0,0,.3,1.5c4.8,7.2,9.5,14.4,14.3,21.6a1.613,1.613,0,0,1,.3.9V47.2H17.4a1.315,1.315,0,1,0-.4,2.6H35.7a1.293,1.293,0,0,0,1.5-1.2v-.1c0-.8-.6-1.3-1.6-1.3H28V32.4a1.136,1.136,0,0,1,.3-.8c2.1-3.2,4.2-6.4,6.4-9.7,2.6-4,5.3-8,7.9-12a1.514,1.514,0,0,0,.1-1.7c-.3-.5-.7-.5-1.2-.5H34c.9-1.6,1.7-3,2.5-4.5a1.007,1.007,0,0,1,1.1-.6h8.5c1,0,1.6-.5,1.6-1.3A1.714,1.714,0,0,0,46,0h0M27.6,13.5a1.676,1.676,0,0,1-1.8,1c-3.2-.1-6.3,0-9.5,0a1.05,1.05,0,0,1-.9-.5c-.8-1.4-1.7-2.8-2.7-4.4H29.6c-.6,1.4-1.3,2.6-2,3.9M40,9.7a.1.1,0,0,1,.1.1,2.186,2.186,0,0,1-.3.5c-.8,1.3-1.6,2.5-2.4,3.8a.632.632,0,0,1-.8.4H30c.9-1.6,1.7-3.1,2.6-4.6a.52.52,0,0,1,.4-.2c2.4-.1,4.7-.1,7,0" fill="#333332"/>
        <path id="Path_10637" d="M12.8,16.1c-.4,0-.7.1-1.1.1a3.75,3.75,0,0,1-1.1-.1A6.987,6.987,0,1,1,12.8,2.3a7.105,7.105,0,0,1,5.2,4c.4.8,1,1.1,1.6.8s.8-.9.4-1.7A9.043,9.043,0,0,0,12.1.1,9.025,9.025,0,0,0,2.5,8.7,9.132,9.132,0,0,0,5.6,16a9.255,9.255,0,0,0,7.5,2.2,1.1,1.1,0,0,0,0-2.2.438.438,0,0,0-.3.1" fill="#333332"/>
      </g>
    </g>
  </g>
</svg>
