<svg id="undraw_to_do_list_re_9nt7" xmlns="http://www.w3.org/2000/svg" width="100%" height="100%" viewBox="0 0 723.135 400">
  <path id="Path_476" data-name="Path 476" d="M-20053.838-12429.336s-8.8-3.967-13.285-12.076-8.627-32.266-5.865-48.312,2.063-20.189,2.063-20.189l10.008-46.414,5.348-39.166v-9l.992-8.521v-28.039l-.391-10.488-1.492-16.963-2.119-19.713-4.084-23.324-4.555-19.24-2.984-9.58s-1.807-12.252,12.25-12.8,37.617,0,37.617,0h26.467l43.508.314h24.816l43.979-.314,29.844.314s5.969,1.492,7.225,4.869,4.947,7.775,6.125,12.016,4.24,13.271,5.184,18.377,3.691,26.074,2.984,31.885,0,7.545,0,7.545v13.109l-1.654,18.605-2.242,22.879-3.363,18.617-6.281,38.131s-4.262,40.375-4.262,47.777.857,34.91,1.785,38.494,2.258,18.979,3.982,23.492,4.154,12.986,4.154,12.986l1.121,3.266-1.121,4.7-1.941,3.674-2.213,1.941-3.5,1.225h-19.4Z" transform="translate(20230.764 12828.044)" fill="#fff"/>
  <path id="Path_477" data-name="Path 477" d="M-20053.838-12429.336s-8.8-3.967-13.285-12.076-8.627-32.266-5.865-48.312,2.063-20.189,2.063-20.189l10.008-46.414,5.348-39.166v-9l.992-8.521v-28.039l-.391-10.488-1.492-16.963-2.119-19.713-4.084-23.324-4.555-19.24-2.984-9.58s-1.807-12.252,12.25-12.8,37.617,0,37.617,0h26.467l43.508.314h24.816l43.979-.314,29.844.314s5.969,1.492,7.225,4.869,4.947,7.775,6.125,12.016,4.24,13.271,5.184,18.377,3.691,26.074,2.984,31.885,0,7.545,0,7.545v13.109l-1.654,18.605-2.242,22.879-3.363,18.617-6.281,38.131s-4.262,40.375-4.262,47.777.857,34.91,1.785,38.494,2.258,18.979,3.982,23.492,4.154,12.986,4.154,12.986l1.121,3.266-1.121,4.7-1.941,3.674-2.213,1.941-3.5,1.225h-19.4Z" transform="translate(20194.125 12791.405)" fill="#fff"/>
  <path id="Path_478" data-name="Path 478" d="M-20053.838-12429.336s-8.8-3.967-13.285-12.076-8.627-32.266-5.865-48.312,2.063-20.189,2.063-20.189l10.008-46.414,5.348-39.166v-9l.992-8.521v-28.039l-.391-10.488-1.492-16.963-2.119-19.713-4.084-23.324-4.555-19.24-2.984-9.58s-1.807-12.252,12.25-12.8,37.617,0,37.617,0h26.467l43.508.314h24.816l43.979-.314,29.844.314s5.969,1.492,7.225,4.869,4.947,7.775,6.125,12.016,4.24,13.271,5.184,18.377,3.691,26.074,2.984,31.885,0,7.545,0,7.545v13.109l-1.654,18.605-2.242,22.879-3.363,18.617-6.281,38.131s-4.262,40.375-4.262,47.777.857,34.91,1.785,38.494,2.258,18.979,3.982,23.492,4.154,12.986,4.154,12.986l1.121,3.266-1.121,4.7-1.941,3.674-2.213,1.941-3.5,1.225h-19.4Z" transform="translate(20156.633 12753.914)" fill="#fff"/>
  <path id="Path_448" data-name="Path 448" d="M444.64,662.323a176.836,176.836,0,0,0,34.543,1.67c27.829-1.406,55.2-9.5,78.587-24.719,10.37-6.748,20.263-15.039,25.63-26.176,7.286-15.124,4.738-34.271-5.666-47.444a47.728,47.728,0,0,0-13.753-11.733c-.784-.443-1.585-.869-2.394-1.278a51.6,51.6,0,0,0-28.528-5.223c-16.683,1.823-32.08,12.014-40.976,26.252-7.924,12.7-10.685,27.675-12.313,42.689-.307,2.829-.571,5.666-.826,8.487a124.725,124.725,0,0,0,6.655,23.909,8.358,8.358,0,0,1,.375,1.159q-2.556,5.547-4.865,11.2a9.847,9.847,0,0,1-4.712,1.193H444.708Z" transform="translate(-93.609 -264.37)" fill="#e8eef2"/>
  <path id="Path_449" data-name="Path 449" d="M473.157,663.977a1.733,1.733,0,0,0,2.3-.9c.136-.324.264-.647.4-.971q1.84-4.473,3.86-8.862a269.923,269.923,0,0,1,75.128-97.222,1.259,1.259,0,0,0,.528-1.167,1.732,1.732,0,0,0-2.394-1.278,1.637,1.637,0,0,0-.358.221,270.547,270.547,0,0,0-37.713,37.449,274.8,274.8,0,0,0-29.746,44.018q-3.464,6.391-6.578,12.96c-.409.869-.818,1.747-1.219,2.624q-2.556,5.547-4.865,11.2c-.026.06-.051.128-.077.188a1.261,1.261,0,0,0,.733,1.747Z" transform="translate(-85 -265.3)" fill="#fff"/>
  <ellipse id="Ellipse_9" data-name="Ellipse 9" cx="33.231" cy="33.231" rx="33.231" ry="33.231" transform="translate(467.936 219.835)" fill="#f96e46"/>
  <path id="Path_450" data-name="Path 450" d="M430.342,522.768a3.446,3.446,0,0,1-2.074-.689l-.037-.028-7.81-5.979a3.47,3.47,0,0,1,4.22-5.508l5.058,3.879,11.954-15.59a3.469,3.469,0,0,1,4.865-.642l-.074.1.076-.1a3.473,3.473,0,0,1,.642,4.865L433.1,521.414a3.471,3.471,0,0,1-2.76,1.354Z" transform="translate(67.863 -257.025)" fill="#fff"/>
  <path id="Path_451" data-name="Path 451" d="M176.674,684.369H897.783a1.015,1.015,0,1,0,0-2.029H176.677a1.015,1.015,0,1,0,0,2.029Z" transform="translate(-175.662 -284.369)" fill="#212121"/>
  <ellipse id="Ellipse_10" data-name="Ellipse 10" cx="24.659" cy="24.659" rx="24.659" ry="24.659" transform="translate(557.419 66.517)" fill="#212121"/>
  <ellipse id="Ellipse_11" data-name="Ellipse 11" cx="10.204" cy="7.653" rx="10.204" ry="7.653" transform="translate(608.539 85.096) rotate(-135)" fill="#212121"/>
  <ellipse id="Ellipse_12" data-name="Ellipse 12" cx="7.653" cy="10.204" rx="7.653" ry="10.204" transform="translate(559.382 77.089) rotate(-113.131)" fill="#212121"/>
  <path id="Path_452" data-name="Path 452" d="M355.65,474.026a9.153,9.153,0,0,1,5.328-12.986l35.631-75.374,16.3,11.429-40.149,70.5a9.2,9.2,0,0,1-17.108,6.434Z" transform="translate(157.763 -240.483)" fill="#ffb8b8"/>
  <path id="Path_453" data-name="Path 453" d="M349.228,395.2l18.923,8.462a4.1,4.1,0,0,0,5.627-2.638l5.58-19.9a11.4,11.4,0,1,0-20.838-9.245l-11.078,17.367a4.1,4.1,0,0,0,1.785,5.953Z" transform="translate(196.972 -237.441)" fill="#ffeab4"/>
  <path id="Path_454" data-name="Path 454" d="M307.52,481.883a9.154,9.154,0,0,1-6.343-12.521l-33.744-76.237,19.3-4.862,27.1,76.467a9.2,9.2,0,0,1-6.315,17.152Z" transform="translate(326.075 -240.867)" fill="#ffb8b8"/>
  <path id="Path_455" data-name="Path 455" d="M122.562,438.46l-9.816,3.574-18.457-36.16,14.488-5.274Z" transform="translate(520.232 -59.259)" fill="#ffb8b8"/>
  <path id="Path_456" data-name="Path 456" d="M0,12.685H32.831V0H12.685A12.685,12.685,0,0,0,0,12.685Z" transform="translate(613.024 386.865) rotate(-20.007)" fill="#212121"/>
  <path id="Path_457" data-name="Path 457" d="M320.67,618.232a4.068,4.068,0,0,0,1.742-.391l11.281-5.343a4.089,4.089,0,0,0,2.1-5.1l-31.837-88.163a4.1,4.1,0,0,0-7.38-.717l-16.839,28.065a4.109,4.109,0,0,0-.044,4.148l37.4,65.441A4.124,4.124,0,0,0,320.67,618.232Z" transform="translate(298.906 -259.84)" fill="#212121"/>
  <ellipse id="Ellipse_13" data-name="Ellipse 13" cx="20.928" cy="20.928" rx="20.928" ry="20.928" transform="translate(560.367 76.135)" fill="#ffb8b8"/>
  <path id="Path_458" data-name="Path 458" d="M315.908,429.13l37.055-10.191,19.708-39.416a12.42,12.42,0,0,0-11.109-17.974H332.081a12.4,12.4,0,0,0-8.291,3.171c-7.908,7.085-24.523,27.509-8.043,64.053Z" transform="translate(235.78 -236.916)" fill="#ffeab4"/>
  <path id="Path_459" data-name="Path 459" d="M310.289,403.28l18.774-8.788a4.1,4.1,0,0,0,1.682-5.983l-11.41-17.231A11.4,11.4,0,1,0,298.717,381l5.9,19.736a4.1,4.1,0,0,0,5.672,2.541Z" transform="translate(287.787 -237.388)" fill="#ffeab4"/>
  <path id="Path_460" data-name="Path 460" d="M188.841,449.634H178.4l-4.97-40.293h15.418Z" transform="translate(386.521 -60.552)" fill="#ffb8b8"/>
  <path id="Path_461" data-name="Path 461" d="M0,12.685H32.831V0H12.685A12.685,12.685,0,0,0,0,12.685Z" transform="translate(544.772 386.098)" fill="#212121"/>
  <path id="Path_462" data-name="Path 462" d="M329.457,619.826a4.083,4.083,0,0,0,4-3.25c3-14.148,18.6-86.614,30.769-123.942,12.384-37.977-8.707-55.276-13.06-58.357a3.206,3.206,0,0,1-1.068-1.289l-3.163-6.958a4.119,4.119,0,0,0-3.747-2.408h-.026c-23.712.142-31.684,7.616-34.01,10.824a4.057,4.057,0,0,0-.642,3.345l15,61.9a3.2,3.2,0,0,1,.062,1.173L308.652,613.25a4.105,4.105,0,0,0,3.6,4.618l16.725,1.929A4.2,4.2,0,0,0,329.457,619.826Z" transform="translate(241.96 -246.098)" fill="#212121"/>
  <path id="Path_463" data-name="Path 463" d="M357.125,311.8a28.463,28.463,0,0,1-16.267,5.027,17.443,17.443,0,0,0,6.913,2.844,57.4,57.4,0,0,1-23.444.132,15.173,15.173,0,0,1-4.908-1.686,6.211,6.211,0,0,1-3.029-4.051c-.514-2.938,1.775-5.608,4.155-7.407A30.647,30.647,0,0,1,346.3,301.51c2.877.744,5.759,2,7.627,4.31s2.422,5.872.642,8.251Z" transform="translate(246.161 -227.898)" fill="#212121"/>
  <ellipse id="Ellipse_14" data-name="Ellipse 14" cx="11.077" cy="11.077" rx="11.077" ry="11.077" transform="translate(213.165 152.521)" fill="#f96e46"/>
  <path id="Path_464" data-name="Path 464" d="M765.224,410.775a1.148,1.148,0,0,1-.691-.23l-.012-.009-2.6-1.993a1.156,1.156,0,1,1,1.407-1.836L765.01,408l3.985-5.2a1.157,1.157,0,0,1,1.622-.214l-.025.034.025-.033a1.158,1.158,0,0,1,.214,1.622l-4.687,6.112a1.157,1.157,0,0,1-.92.451Z" transform="translate(-542.081 -242.951)" fill="#fff"/>
  <ellipse id="Ellipse_15" data-name="Ellipse 15" cx="11.077" cy="11.077" rx="11.077" ry="11.077" transform="translate(204.644 184.9)" fill="#f96e46"/>
  <path id="Path_465" data-name="Path 465" d="M765.224,448.775a1.149,1.149,0,0,1-.691-.23l-.012-.009-2.6-1.993a1.157,1.157,0,1,1,1.407-1.836L765.01,446l3.985-5.2a1.157,1.157,0,0,1,1.622-.214l-.025.034.025-.033a1.158,1.158,0,0,1,.214,1.622l-4.687,6.112a1.157,1.157,0,0,1-.92.451Z" transform="translate(-550.601 -248.572)" fill="#fff"/>
  <ellipse id="Ellipse_16" data-name="Ellipse 16" cx="11.077" cy="11.077" rx="11.077" ry="11.077" transform="translate(199.532 222.391)" fill="#f96e46"/>
  <path id="Path_466" data-name="Path 466" d="M772.224,492.775a1.149,1.149,0,0,1-.691-.23l-.012-.009-2.6-1.993a1.156,1.156,0,0,1,1.407-1.836L772.01,490l3.985-5.2a1.157,1.157,0,0,1,1.622-.214l-.025.034.025-.033a1.158,1.158,0,0,1,.214,1.621l-4.687,6.112a1.157,1.157,0,0,1-.92.451Z" transform="translate(-562.714 -255.081)" fill="#fff"/>
  <path id="Path_467" data-name="Path 467" d="M667.6,541.231c.115,0,.187,0,.212,0h13.752V539.2h-13.8c-.32.011-6.839.2-12.846-7.093-8.952-10.863-16.3-37.755-.488-104.178,21.265-89.315,3.529-168.22-5.083-198a9.887,9.887,0,0,1,9.513-12.624H864.234a9.932,9.932,0,0,1,8.009,4.077c3.648,5.019,8.655,14.66,11.788,32.093l2-.358c-3.2-17.812-8.371-27.737-12.144-32.927a11.964,11.964,0,0,0-9.649-4.912H658.855a11.915,11.915,0,0,0-11.461,15.215c8.568,29.624,26.213,108.12,5.059,196.966-16.037,67.357-8.328,94.832.964,106.019C659.546,540.858,666.3,541.231,667.6,541.231Z" transform="translate(-561.245 -215.279)" fill="#e8eef2"/>
  <path id="Path_468" data-name="Path 468" d="M624.169,584.661c.115,0,.187,0,.212,0h13.752V582.63h-13.8c-.321.01-6.839.2-12.846-7.093-8.952-10.863-16.3-37.755-.488-104.178,21.265-89.315,3.529-168.22-5.083-198a9.887,9.887,0,0,1,9.513-12.624H820.805a9.932,9.932,0,0,1,8.009,4.077c3.648,5.019,8.655,14.66,11.788,32.093l2-.358c-3.2-17.812-8.371-27.737-12.144-32.927a11.964,11.964,0,0,0-9.649-4.912H615.426a11.915,11.915,0,0,0-11.461,15.215c8.568,29.624,26.213,108.12,5.059,196.966-16.037,67.357-8.328,94.832.964,106.019C616.116,584.287,622.869,584.661,624.169,584.661Z" transform="translate(-480.811 -221.703)" fill="#e8eef2"/>
  <path id="Path_469" data-name="Path 469" d="M562.2,514.323c21.157-88.846,3.511-167.347-5.061-196.966A11.924,11.924,0,0,1,568.6,302.139H773.985a11.956,11.956,0,0,1,9.646,4.908c8.291,11.4,25.494,49.207,6.279,153.817-10.276,55.964-10.123,94.12-6.765,119.256,1.883,14.153,4.789,24.173,7.422,30.93l.281.716a11.623,11.623,0,0,1,.852,4.3,11.788,11.788,0,0,1-3.86,8.861,11.281,11.281,0,0,1-2.7,1.875,11.426,11.426,0,0,1-2.582.946,11.652,11.652,0,0,1-2.786.332H577.557c-.026,0-.094.009-.213.009-1.3,0-8.052-.375-14.179-7.754C553.878,609.15,546.167,581.679,562.2,514.323Zm2.463,104.643c6.007,7.294,12.525,7.106,12.841,7.1H779.771a9.915,9.915,0,0,0,8.206-4.354,9.686,9.686,0,0,0,1.372-8.035,8.35,8.35,0,0,0-.375-1.159,124.72,124.72,0,0,1-6.655-23.909c-4.806-26.2-5.7-66.632,5.6-128.109C806.986,356.663,790.124,319.428,782,308.24a9.953,9.953,0,0,0-8.01-4.073H568.6a9.887,9.887,0,0,0-9.509,12.619c8.614,29.78,26.346,108.691,5.078,198.005-15.814,66.419-8.461,93.311.494,104.175Z" transform="translate(-396.983 -228.127)" fill="#212121"/>
  <path id="Path_470" data-name="Path 470" d="M590.331,412.863H696.147a8.111,8.111,0,0,0,0-16.221H590.331a8.111,8.111,0,0,0,0,16.221Z" transform="translate(-327.54 -242.107)" fill="#e8eef2"/>
  <path id="Path_471" data-name="Path 471" d="M590.331,453.863H696.147a8.111,8.111,0,0,0,0-16.221H590.331a8.111,8.111,0,0,0,0,16.221Z" transform="translate(-327.54 -248.172)" fill="#e8eef2"/>
  <path id="Path_472" data-name="Path 472" d="M600.331,495.863H706.147a8.111,8.111,0,0,0,0-16.221H600.331a8.111,8.111,0,0,0,0,16.221Z" transform="translate(-346.061 -254.385)" fill="#e8eef2"/>
  <path id="Path_473" data-name="Path 473" d="M607.331,539.863H713.147a8.111,8.111,0,0,0,0-16.221H607.331a8.111,8.111,0,0,0,0,16.221Z" transform="translate(-359.026 -260.893)" fill="#e8eef2"/>
  <path id="Path_474" data-name="Path 474" d="M642.33,338.953h76.038a8.111,8.111,0,0,0,0-16.221H642.33a8.111,8.111,0,0,0,0,16.221Z" transform="translate(-394.069 -231.174)" fill="#f96e46"/>
  <ellipse id="Ellipse_17" data-name="Ellipse 17" cx="11.077" cy="11.077" rx="11.077" ry="11.077" transform="translate(195.272 259.782)" fill="#e8eef2"/>
  <path id="Path_475" data-name="Path 475" d="M613.331,582.863H719.147a8.111,8.111,0,0,0,0-16.221H613.331a8.111,8.111,0,0,0,0,16.221Z" transform="translate(-370.138 -267.254)" fill="#e8eef2"/>
  <ellipse id="Ellipse_18" data-name="Ellipse 18" cx="11.077" cy="11.077" rx="11.077" ry="11.077" transform="translate(190.16 296.422)" fill="#e8eef2"/>
</svg>
