<svg xmlns="http://www.w3.org/2000/svg" width="563.797" height="519.822" viewBox="0 0 563.797 519.822">
  <g id="Group_75" data-name="Group 75" transform="translate(-51.5 -214.5)">
    <g id="Login" transform="translate(128 238)">
      <path id="Path_584" data-name="Path 584" d="M589.942,231.568c-22.957-90.276-102.284-155.442-195.4-158.056-49.226-1.382-101.025,14.944-138.739,72.075-67.417,102.127,4.143,172.7,54.033,206.235a312.176,312.176,0,0,1,64.525,58c33.7,39.989,98.528,89.682,175.737,11.821C606.061,365.205,605.234,291.7,589.942,231.568Z" transform="translate(-228.298 -73.433)" fill="#e8eef2"/>
      <path id="Path_585" data-name="Path 585" d="M659.21,706.622c0,17.793-83.678,49.362-186.9,49.362s-177.1-63.975-177.1-81.768,73.881,17.333,177.1,17.333S659.21,688.828,659.21,706.622Z" transform="translate(-258.306 -340.618)" fill="#3f3d56"/>
      <path id="Path_586" data-name="Path 586" d="M659.21,706.622c0,17.793-83.678,49.362-186.9,49.362s-177.1-63.975-177.1-81.768,73.881,17.333,177.1,17.333S659.21,688.828,659.21,706.622Z" transform="translate(-258.306 -340.618)" opacity="0.1"/>
      <path id="Path_587" data-name="Path 587" d="M659.21,704.093c0,17.793-83.678,32.218-186.9,32.218s-177.1-46.642-177.1-64.435,73.881,0,177.1,0S659.21,686.3,659.21,704.093Z" transform="translate(-258.306 -338.278)" fill="#3f3d56"/>
      <g id="Group_57" data-name="Group 57" transform="translate(333.174 57.893)" opacity="0.7">
        <path id="Path_588" data-name="Path 588" d="M901.551,217.485c-6.779,13.158-28.266,28.663-41.424,21.884s-13.005-33.276-6.226-46.434a26.8,26.8,0,1,1,47.65,24.55Z" transform="translate(-840.008 -178.403)" fill="#f96e46"/>
        <path id="Path_589" data-name="Path 589" d="M867.165,289.6a4.44,4.44,0,0,0-4.593-2.366l2.366-4.593L869.531,285Z" transform="translate(-845.933 -225.15)" fill="#f96e46"/>
        <path id="Path_590" data-name="Path 590" d="M864.83,286.635a5.683,5.683,0,0,0,4.611,2.352" transform="translate(-846.946 -226.943)" fill="none" stroke="#2f2e41" stroke-miterlimit="10" stroke-width="2"/>
        <ellipse id="Ellipse_52" data-name="Ellipse 52" cx="6.781" cy="5.651" rx="6.781" ry="5.651" transform="translate(44.669 25.305) rotate(-62.742)" fill="#fff" opacity="0.4"/>
        <line id="Line_67" data-name="Line 67" x1="19.995" y2="50.317" transform="translate(0 61.131)" fill="none" stroke="#2f2e41" stroke-miterlimit="10" stroke-width="2"/>
      </g>
      <path id="Path_591" data-name="Path 591" d="M892.578,342.722c-14.842,14.974-50.669,26.839-65.643,12s-3.424-50.772,11.419-65.746a38.174,38.174,0,0,1,54.224,53.749Z" transform="translate(-493.64 -165.031)" fill="#ffcb47"/>
      <path id="Path_592" data-name="Path 592" d="M828.414,418.343a6.324,6.324,0,0,0-5.227-5.181l5.181-5.226,5.226,5.181Z" transform="translate(-495.096 -223.452)" fill="#ffcb47"/>
      <path id="Path_593" data-name="Path 593" d="M828.108,412.5a8.1,8.1,0,0,0,5.257,5.168" transform="translate(-497.302 -225.498)" fill="none" stroke="#2f2e41" stroke-miterlimit="10" stroke-width="2"/>
      <line id="Line_68" data-name="Line 68" x1="49.215" y2="49.65" transform="translate(283.083 190.951)" fill="none" stroke="#2f2e41" stroke-miterlimit="10" stroke-width="2"/>
      <ellipse id="Ellipse_53" data-name="Ellipse 53" cx="9.659" cy="8.049" rx="9.659" ry="8.049" transform="translate(381.913 151.751) rotate(-45.252)" fill="#fff" opacity="0.4"/>
      <path id="Path_594" data-name="Path 594" d="M806.065,269.412c-4.891,20.508-29.322,49.274-49.83,44.384S726.907,272.209,731.8,251.7a38.175,38.175,0,0,1,74.266,17.711Z" transform="translate(-453.517 -140.23)" fill="#f96e46"/>
      <path id="Path_595" data-name="Path 595" d="M776.3,388.967a6.324,6.324,0,0,0-7.158-1.707l1.707-7.158,7.158,1.707Z" transform="translate(-470.857 -210.969)" fill="#f96e46"/>
      <path id="Path_596" data-name="Path 596" d="M770.79,386.324A8.1,8.1,0,0,0,777.968,388" transform="translate(-471.596 -213.759)" fill="none" stroke="#2f2e41" stroke-miterlimit="10" stroke-width="2"/>
      <ellipse id="Ellipse_54" data-name="Ellipse 54" cx="9.659" cy="8.049" rx="9.659" ry="8.049" transform="translate(324.516 115.878) rotate(-76.586)" fill="#fff" opacity="0.4"/>
      <line id="Line_69" data-name="Line 69" x1="16.217" y2="68.002" transform="translate(286.387 175.154)" fill="none" stroke="#2f2e41" stroke-miterlimit="10" stroke-width="2"/>
      <g id="Group_58" data-name="Group 58" transform="translate(74.087 262.765)" opacity="0.8">
        <path id="Path_597" data-name="Path 597" d="M413.773,596.111c-10.661,10.374-36.086,18.289-46.46,7.628s-1.769-35.86,8.892-46.234a26.934,26.934,0,1,1,37.568,38.607Z" transform="translate(-362.63 -549.874)" fill="#f96e46"/>
        <path id="Path_598" data-name="Path 598" d="M368.086,648.227a4.462,4.462,0,0,0-3.621-3.721l3.721-3.621,3.621,3.721Z" transform="translate(-363.453 -590.691)" fill="#f96e46"/>
        <path id="Path_599" data-name="Path 599" d="M368,644.047a5.711,5.711,0,0,0,3.643,3.713" transform="translate(-365.039 -592.109)" fill="#f96e46"/>
        <ellipse id="Ellipse_55" data-name="Ellipse 55" cx="6.815" cy="5.679" rx="6.815" ry="5.679" transform="matrix(0.717, -0.697, 0.697, 0.717, 39.462, 27.718)" fill="#fff" opacity="0.4"/>
      </g>
      <path id="Path_600" data-name="Path 600" d="M421.793,163.886h7.49a18.527,18.527,0,0,1,18.527,18.527v26.016H403.266V182.413a18.527,18.527,0,0,1,18.527-18.527Z" transform="translate(-180.858 -73.5)" fill="#212121"/>
      <path id="Path_601" data-name="Path 601" d="M620.52,447.616,614.9,459.435s-4.582,15.877.61,17.574,6.205-16.293,6.205-16.293l4.3-11.913Z" transform="translate(-400.844 -241.248)" fill="#ffb9b9"/>
      <path id="Path_602" data-name="Path 602" d="M620.52,447.616,614.9,459.435s-4.582,15.877.61,17.574,6.205-16.293,6.205-16.293l4.3-11.913Z" transform="translate(-400.844 -241.248)" fill="#ffdcd2"/>
      <path id="Path_603" data-name="Path 603" d="M394.461,340.643l-7.11,24.883,11.257,5.924V341.828Z" transform="translate(-173.72 -152.773)" fill="#575a89"/>
      <path id="Path_604" data-name="Path 604" d="M659.116,293.016s-.592,9.479-1.777,9.479-3.555,11.257-3.555,11.257l10.072,6.517L676.3,309.012l-3.555-8.887a13.232,13.232,0,0,1-1.185-7.109C672.15,289.461,659.116,293.016,659.116,293.016Z" transform="translate(-419.121 -171.204)" fill="#ffb9b9"/>
      <path id="Path_605" data-name="Path 605" d="M659.116,293.016s-.592,9.479-1.777,9.479-3.555,11.257-3.555,11.257l10.072,6.517L676.3,309.012l-3.555-8.887a13.232,13.232,0,0,1-1.185-7.109C672.15,289.461,659.116,293.016,659.116,293.016Z" transform="translate(-419.121 -171.204)" fill="#f6d2c8"/>
      <path id="Path_606" data-name="Path 606" d="M731.128,463.656l1.185,13.034s4.147,16,9.479,14.811-2.962-17.181-2.962-17.181l-2.37-12.441Z" transform="translate(-453.809 -247.644)" fill="#ffdcd2"/>
      <path id="Path_607" data-name="Path 607" d="M684.936,696.534s3.555,21.921,1.185,26.068,2.37,4.74,2.37,4.74l14.219-3.555V717.27s-4.74-21.328-4.74-22.513S684.936,696.534,684.936,696.534Z" transform="translate(-433.092 -351.961)" fill="#ffdcd2"/>
      <path id="Path_608" data-name="Path 608" d="M632.3,500.617s4.147,42.656,10.664,56.283,12.441,50.951,15.4,51.543,25.475-3.555,28.438-5.924-20.143-59.837-20.143-60.43-5.332-53.321-5.332-53.321l-7.109-11.849Z" transform="translate(-409.486 -254.39)" fill="#2f2e41"/>
      <path id="Path_609" data-name="Path 609" d="M632.3,500.617s4.147,42.656,10.664,56.283,12.441,50.951,15.4,51.543,25.475-3.555,28.438-5.924-20.143-59.837-20.143-60.43-5.332-53.321-5.332-53.321l-7.109-11.849Z" transform="translate(-409.486 -254.39)" fill="#212121"/>
      <path id="Path_610" data-name="Path 610" d="M673.134,737s-5.925-2.962-7.109-1.185l-4.74,7.109s-20.143,9.479-13.034,10.664,20.736,1.185,22.513,0,21.328-11.849,20.736-12.442-5.332-13.034-5.925-11.849S676.689,739.366,673.134,737Z" transform="translate(-415.958 -367.54)" fill="#212121"/>
      <path id="Path_611" data-name="Path 611" d="M495.4,652.015s-13.626,9.479-20.143,7.7,0,13.034,0,13.034l11.849,6.517,3.555-2.962s12.441-16.589,17.773-17.181S495.4,652.015,495.4,652.015Z" transform="translate(-337.756 -332.917)" fill="#ffdcd2"/>
      <path id="Path_612" data-name="Path 612" d="M571.775,447.243l2.37,12.441-44.433,67.54s-26.66,26.66-24.29,29.622S522.6,576.99,526.156,574.62s85.905-91.237,85.313-103.087-20.143-34.362-20.143-34.362l-19.551,8.887Z" transform="translate(-352.516 -236.563)" fill="#212121"/>
      <path id="Path_613" data-name="Path 613" d="M461.692,662.381s5.332-5.924,2.37-6.517a88.47,88.47,0,0,0-10.072-1.185c-1.185,0-17.181-8.294-18.366-5.332s7.109,18.366,11.849,20.143,21.921,14.219,21.921,14.219,8.887-7.7,7.7-9.479S459.322,668.9,461.692,662.381Z" transform="translate(-321.229 -331.434)" fill="#212121"/>
      <circle id="Ellipse_56" data-name="Ellipse 56" cx="14.219" cy="14.219" r="14.219" transform="translate(230.516 99.299)" fill="#ffdcd2"/>
      <path id="Path_614" data-name="Path 614" d="M652.423,315.524s-10.072.592-13.034-1.185-9.479,24.29-9.479,24.29l-4.147,34.362s-.592,4.147,0,6.517-5.925-1.185-3.555,5.332-1.777,9.479,2.37,10.072,26.068-8.294,26.068-8.294l10.072-52.728,2.962-21.328Z" transform="translate(-404.726 -180.679)" fill="#d0cde1"/>
      <path id="Path_615" data-name="Path 615" d="M645.53,308.822s-5.458-1.112-7.235.073S630,318.967,630,321.337s-2.37,28.438-2.37,30.807-1.777,14.811-1.777,16a49.044,49.044,0,0,0,1.52,6.277l3.813-6.87s-1.185-8.887,2.962-23.106S645.53,308.822,645.53,308.822Z" transform="translate(-406.595 -178.789)" fill="#575a89"/>
      <path id="Path_616" data-name="Path 616" d="M657.049,316.235s7.915-12.441,8.4-11.257,9.373,2.962,9.373,2.962,16,11.257,14.811,16-9.479,40.287-9.479,40.287-7.7,18.366-1.777,31.4-1.185,17.773-1.185,17.773-4.74,2.37-3.555,4.74-13.626,11.257-15.4,4.74-23.7-45.619-18.958-59.837S657.049,316.235,657.049,316.235Z" transform="translate(-412.314 -177.241)" fill="#575a89"/>
      <path id="Path_617" data-name="Path 617" d="M718.049,336.2s6.517,12.441,5.332,14.219,4.147,12.442,4.147,12.442a4.1,4.1,0,0,0,0,2.962c.592,1.777,4.147,9.479,4.147,12.441s-.593,12.441,0,16.589,8.294,14.219,1.777,14.811-17.181,5.925-16.589,0,2.37-20.143,0-22.513-4.147-2.37-2.962-5.332-5.332-10.664-5.332-10.664Z" transform="translate(-443.691 -191.277)" fill="#575a89"/>
      <path id="Path_618" data-name="Path 618" d="M442.862,189.961H420.373l-5.092-11.7h31.4Z" transform="translate(-186.246 -79.946)" fill="#212121"/>
      <ellipse id="Ellipse_57" data-name="Ellipse 57" cx="1.132" cy="3.02" rx="1.132" ry="3.02" transform="translate(228.408 113.093) rotate(-16.16)" fill="#ffdcd2"/>
      <ellipse id="Ellipse_58" data-name="Ellipse 58" cx="3.02" cy="1.132" rx="3.02" ry="1.132" transform="translate(256.718 118.261) rotate(-73.84)" fill="#ffdcd2"/>
      <path id="Path_619" data-name="Path 619" d="M910.492,666.987c0,13.762-8.18,18.566-18.272,18.566-.235,0-.469,0-.7-.006q-.7-.019-1.388-.067c-9.109-.643-16.183-5.7-16.183-18.494,0-13.242,16.918-29.951,18.2-31.194h0v0c.047-.044.073-.07.073-.07S910.492,653.225,910.492,666.987Z" transform="translate(-517.861 -325.609)" fill="#e8eef2"/>
      <path id="Path_620" data-name="Path 620" d="M899.9,683.448l6.681-9.337-6.7,10.361-.019,1.074q-.7-.019-1.388-.067l.719-13.765-.006-.108.013-.019.07-1.3L892.557,659.9l6.735,9.41.016.279.545-10.4L894.1,648.452l5.819,8.906.567-21.565,0-.073v.07l-.1,17.007,5.724-6.741-5.749,8.206-.149,9.315,5.344-8.938L900.2,664.946l-.086,5.179,7.759-12.44-7.787,14.247Z" transform="translate(-526.206 -325.609)" fill="#3f3d56"/>
    </g>
    <g id="Group_55" data-name="Group 55" transform="translate(689.5 990.5) rotate(-180)">
      <line id="Line_56" data-name="Line 56" x2="19" y2="22" transform="translate(103.5 331.5)" fill="none" stroke="rgba(33,33,33,0.2)" stroke-width="1"/>
      <line id="Line_57" data-name="Line 57" x2="29" y2="19" transform="translate(93.5 342.5)" fill="none" stroke="rgba(33,33,33,0.2)" stroke-width="1"/>
      <line id="Line_58" data-name="Line 58" x2="4" y2="31" transform="translate(542.5 263.5)" fill="none" stroke="rgba(33,33,33,0.2)" stroke-width="1"/>
      <line id="Line_59" data-name="Line 59" x2="9" y2="31" transform="translate(525.5 271.5)" fill="none" stroke="rgba(33,33,33,0.2)" stroke-width="1"/>
      <line id="Line_60" data-name="Line 60" x2="21" y2="25" transform="translate(194.5 256.5)" fill="none" stroke="rgba(33,33,33,0.2)" stroke-width="1"/>
      <line id="Line_61" data-name="Line 61" x2="13" y2="3" transform="translate(181.5 303.5)" fill="none" stroke="rgba(33,33,33,0.2)" stroke-width="1"/>
      <line id="Line_62" data-name="Line 62" x1="12" y2="8" transform="translate(596.5 298.5)" fill="none" stroke="rgba(33,33,33,0.2)" stroke-width="1"/>
      <line id="Line_63" data-name="Line 63" x2="15" y2="25" transform="translate(565.5 441.5)" fill="none" stroke="rgba(33,33,33,0.2)" stroke-width="1"/>
      <line id="Line_64" data-name="Line 64" x2="20" y2="27" transform="translate(556.5 454.5)" fill="none" stroke="rgba(33,33,33,0.2)" stroke-width="1"/>
      <line id="Line_65" data-name="Line 65" x1="38" y2="25" transform="translate(463.5 665.5)" fill="none" stroke="rgba(33,33,33,0.2)" stroke-width="1"/>
      <line id="Line_66" data-name="Line 66" x1="41" y2="24" transform="translate(468.5 678.5)" fill="none" stroke="rgba(33,33,33,0.2)" stroke-width="1"/>
      <g id="Ellipse_47" data-name="Ellipse 47" transform="translate(133 343)" fill="#fafcfe" stroke="rgba(33,33,33,0.2)" stroke-width="1">
        <circle cx="14" cy="14" r="14" stroke="none"/>
        <circle cx="14" cy="14" r="13.5" fill="none"/>
      </g>
      <g id="Ellipse_48" data-name="Ellipse 48" transform="translate(596 588)" fill="#fafcfe" stroke="rgba(33,33,33,0.2)" stroke-width="1">
        <circle cx="21" cy="21" r="21" stroke="none"/>
        <circle cx="21" cy="21" r="20.5" fill="none"/>
      </g>
      <g id="Ellipse_49" data-name="Ellipse 49" transform="translate(548 758)" fill="#fafcfe" stroke="rgba(33,33,33,0.2)" stroke-width="1">
        <circle cx="9" cy="9" r="9" stroke="none"/>
        <circle cx="9" cy="9" r="8.5" fill="none"/>
      </g>
      <path id="Path_550" data-name="Path 550" d="M-22360-13290.431v-28.134l27.2,28.134" transform="translate(22494 13818)" fill="none" stroke="rgba(33,33,33,0.2)" stroke-width="1"/>
      <path id="Path_551" data-name="Path 551" d="M-22427.5-13241.98s12.646,9.377,23.586,0,17.975-17.192,28.133-11.722" transform="translate(22502 13996)" fill="none" stroke="rgba(33,33,33,0.2)" stroke-width="1"/>
      <path id="Path_552" data-name="Path 552" d="M-22427.5-13241.98s12.646,9.377,23.586,0,17.975-17.192,28.133-11.722" transform="translate(22503 14005)" fill="none" stroke="rgba(33,33,33,0.2)" stroke-width="1"/>
    </g>
  </g>
</svg>
